# xmcd CD database file
#
# Track frame offsets:
#	187
#	22194
#	54212
#	72724
#	98029
#	152322
#	163204
#
# Disc length: 2572 seconds
#
# Revision: 0
# Processed by: cddbd v1.5.1PL0 Copyright (c) Steve Scherf et al.
# Submitted via: CDex 1.51
#
DISCID=550a0a07
DTITLE=Dewey Redman - The Ear of the Beheader
DYEAR=1973
DGENRE=Jazz
TTITLE0=Interconnection
TTITLE1=Imani
TTITLE2=Walls-Bridges
TTITLE3=PS
TTITLE4=Boody
TTITLE5=Sunlanding
TTITLE6=Image (In Disguise)
EXTD=YEAR: 1973
EXTT0=
EXTT1=
EXTT2=
EXTT3=
EXTT4=
EXTT5=
EXTT6=
PLAYORDER=
